# xmcd CD database file
#
# Track frame offsets:
#	182
#	14587
#	28050
#	45047
#	58637
#	71120
#	82045
#	93412
#	107140
#	121107
#	136677
#	147982
#	168090
#	180352
#	189777
#	204077
#	214952
#	231582
#	243622
#	254495
#
# Disc length: 3546 seconds
#
# Revision: 6
# Processed by: cddbd v1.5.2PL0 Copyright (c) Steve Scherf et al.
# Submitted via: CDex 1.60beta1-cs1
#
DISCID=130dd814
DTITLE=Jim Croce - Best of Jim Croce
DYEAR=1997
DGENRE=Folk-Rock
TTITLE0=I Got a Name
TTITLE1=Bad, Bad Leroy Brown
TTITLE2=Operator (That's Not the Way it Feels)
TTITLE3=You Don't Mess Around With Jim
TTITLE4=One Less Set of Footsteps
TTITLE5=Time in a Bottle
TTITLE6=Workin' at the Car Wash Blues
TTITLE7=Lover's Cross
TTITLE8=New York's Not My Home
TTITLE9=Roller Derby Queen
TTITLE10=I'll Have to Say I Love You in a Song
TTITLE11=Chain Gang Medley
TTITLE12=Rapid Boy (The Stock Car Boy)
TTITLE13=Photographs and Memories
TTITLE14=These Dreams
TTITLE15=Box #10
TTITLE16=Age
TTITLE17=Dreamin' Again
TTITLE18=Speedball Tucker
TTITLE19=It Doesn't Have to Be That Way
EXTD=YEAR: 1997
EXTT0=
EXTT1=
EXTT2=
EXTT3=
EXTT4=
EXTT5=
EXTT6=
EXTT7=
EXTT8=
EXTT9=
EXTT10=
EXTT11=
EXTT12=
EXTT13=
EXTT14=
EXTT15=
EXTT16=
EXTT17=
EXTT18=
EXTT19=
PLAYORDER=
